<svg height="492pt" viewBox="0 -109 492.13704 492" width="492pt" xmlns="http://www.w3.org/2000/svg"><path d="m353.859375 111.199219c-3.878906-1.90625-5.890625-6.269531-4.824219-10.460938.824219-3.207031-1.109375-6.480469-4.316406-7.304687-3.210938-.824219-6.480469 1.109375-7.304688 4.320312-1.371093 5.363282-.578124 11.046875 2.199219 15.832032-.433593 1.53125-1.257812 2.917968-2.394531 4.03125-2.367188 2.316406-2.410156 6.113281-.09375 8.484374 2.316406 2.371094 6.113281 2.414063 8.484375.097657 1.25-1.226563 2.339844-2.605469 3.25-4.101563 2.980469 1.238282 6.40625-.105468 7.753906-3.039062 1.347657-2.933594.128907-6.410156-2.753906-7.859375zm0 0"/><path d="m314.886719 72.425781c3.210937.828125 6.480469-1.105469 7.304687-4.316406.824219-3.210937-1.105468-6.480469-4.316406-7.304687-8.640625-2.210938-17.738281 1.246093-22.734375 8.636718-2.949219.511719-5.964844-.457031-8.0625-2.59375-1.492187-1.566406-3.710937-2.207031-5.808594-1.679687-2.097656.527343-3.746093 2.140625-4.320312 4.226562-.574219 2.082031.015625 4.316407 1.546875 5.84375 3.46875 3.546875 8.082031 5.753907 13.019531 6.230469.015625 1.335938.15625 2.664062.414063 3.972656.425781 2.105469 1.167968 4.136719 2.203124 6.023438 1.597657 2.902344 5.246094 3.957031 8.148438 2.355468 2.902344-1.597656 3.960938-5.246093 2.359375-8.148437-1.398437-2.546875-1.503906-5.601563-.285156-8.238281 1.222656-2.632813 3.625-4.53125 6.46875-5.105469 1.34375-.277344 2.734375-.242187 4.0625.097656zm0 0"/><path d="m331.269531 205.097656c.832031-2.804687 2.351563-5.359375 4.425781-7.429687 1.535157-1.507813 2.144532-3.726563 1.59375-5.8125-.550781-2.082031-2.175781-3.710938-4.261718-4.265625-2.082032-.550782-4.300782.054687-5.8125 1.589844-2.953125 2.949218-5.246094 6.488281-6.730469 10.386718-5.695313 2.71875-12.410156 2.167969-17.585937-1.445312-2.714844-1.902344-6.457032-1.242188-8.355469 1.472656-1.902344 2.714844-1.242188 6.457031 1.472656 8.355469 3.640625 2.558593 7.816406 4.25 12.210937 4.949219 3.457032.566406 6.988282.503906 10.421876-.183594.539062 5.941406 2.851562 11.582031 6.640624 16.191406 1.359376 1.667969 3.507813 2.480469 5.632813 2.128906 2.121094-.347656 3.894531-1.808594 4.644531-3.828125.75-2.015625.363282-4.28125-1.015625-5.933593-3.59375-4.367188-4.867187-10.199219-3.425781-15.667969.050781-.167969.097656-.335938.144531-.507813zm0 0"/><path d="m154.914062 117.613281c-1.136718-1.109375-1.960937-2.5-2.390624-4.027343 2.777343-4.785157 3.566406-10.472657 2.199218-15.835938-.824218-3.207031-4.097656-5.140625-7.304687-4.316406-3.210938.824218-5.144531 4.09375-4.320313 7.304687 1.070313 4.1875-.941406 8.550781-4.820312 10.460938-2.882813 1.453125-4.101563 4.925781-2.753906 7.859375 1.347656 2.9375 4.773437 4.277344 7.753906 3.039062.910156 1.496094 2 2.875 3.25 4.101563 2.367187 2.316406 6.167968 2.273437 8.484375-.097657 2.316406-2.371093 2.273437-6.167968-.097657-8.484374zm0 0"/><path d="m177.25 72.425781c1.328125-.339843 2.714844-.375 4.054688-.097656 2.847656.574219 5.25 2.472656 6.46875 5.105469 1.222656 2.636718 1.117187 5.695312-.28125 8.238281-1.601563 2.902344-.546876 6.550781 2.355468 8.152344 2.902344 1.597656 6.554688.542969 8.152344-2.359375 1.039062-1.886719 1.78125-3.917969 2.207031-6.027344.261719-1.304688.398438-2.632812.414063-3.96875 4.9375-.476562 9.550781-2.683594 13.019531-6.230469 1.53125-1.527343 2.121094-3.757812 1.550781-5.84375-.574218-2.085937-2.226562-3.699219-4.324218-4.226562-2.097657-.527344-4.316407.117187-5.808594 1.683593-2.097656 2.136719-5.113282 3.105469-8.066406 2.589844-4.992188-7.390625-14.089844-10.847656-22.730469-8.636718-3.207031.824218-5.140625 4.097656-4.316407 7.304687.824219 3.210937 4.09375 5.144531 7.304688 4.320313zm0 0"/><path d="m189.246094 198.117188c-5.175782 3.613281-11.894532 4.167968-17.589844 1.449218-1.484375-3.898437-3.777344-7.4375-6.726562-10.386718-2.351563-2.308594-6.125-2.292969-8.453126.039062-2.328124 2.332031-2.339843 6.101562-.027343 8.449219 2.070312 2.070312 3.59375 4.621093 4.425781 7.429687.039062.171875.085938.339844.140625.507813 1.445313 5.46875.167969 11.296875-3.425781 15.667969-1.375 1.652343-1.765625 3.914062-1.015625 5.933593.75 2.015625 2.523437 3.476563 4.648437 3.828125 2.121094.351563 4.269532-.460937 5.628906-2.128906 3.789063-4.609375 6.101563-10.25 6.640626-16.191406 7.878906 1.558594 16.054687-.164063 22.636718-4.765625 2.714844-1.902344 3.371094-5.644531 1.472656-8.355469-1.902343-2.714844-5.640624-3.375-8.355468-1.476562zm0 0"/><path d="m440.300781 143.296875c3.046875 12.988281 15.339844 21.628906 28.589844 20.09375s23.246094-12.753906 23.246094-26.09375c0-13.335937-9.996094-24.554687-23.246094-26.089844-13.25-1.535156-25.542969 7.105469-28.589844 20.089844h-54.066406c2.277344-8.226563 1.453125-17.007813-2.308594-24.671875h6.335938c14.691406-.015625 26.597656-11.921875 26.613281-26.613281.007812-8.066407 6.546875-14.605469 14.613281-14.613281h4.265625c3.046875 12.984374 15.339844 21.625 28.589844 20.089843 13.246094-1.535156 23.242188-12.753906 23.242188-26.089843 0-13.335938-9.996094-24.554688-23.242188-26.089844-13.25-1.535156-25.542969 7.105468-28.589844 20.089844h-4.265625c-14.691406.015624-26.59375 11.921874-26.613281 26.613281-.007812 8.066406-6.546875 14.601562-14.613281 14.613281h-16.078125c-.699219-.550781-1.417969-1.082031-2.171875-1.582031-1.234375-.8125-2.515625-1.542969-3.839844-2.191407 3.925781-15.578124-.519531-32.074218-11.738281-43.566406-11.222656-11.496094-27.609375-16.332031-43.273438-12.78125 1.160156-11.421875-4.070312-22.554687-13.601562-28.957031-9.53125-6.402344-21.816406-7.03125-31.949219-1.636719-10.136719 5.394532-16.476563 15.933594-16.492187 27.417969v53.179687c-3.359376-.253906-6.738282-.253906-10.097657 0v-53.179687c.054688-11.53125-6.273437-22.144531-16.441406-27.582031s-22.507813-4.804688-32.066406 1.640625c-9.558594 6.449219-14.769531 17.65625-13.535157 29.121093-15.667968-3.582031-32.074218 1.246094-43.300781 12.75-11.230469 11.5-15.664062 28.015626-11.707031 43.59375-1.324219.648438-2.609375 1.382813-3.839844 2.191407-.753906.5-1.472656 1.035156-2.175781 1.582031h-16.078125c-8.066406-.007812-14.605469-6.546875-14.613281-14.613281-.015625-14.691407-11.921875-26.597657-26.613281-26.613281h-4.265626c-3.046874-12.988282-15.34375-21.628907-28.59375-20.09375-13.25 1.53125-23.25 12.753906-23.25 26.09375 0 13.339843 10 24.5625 23.25 26.097656 13.25 1.53125 25.546876-7.109375 28.59375-20.097656h4.269532c8.066406.007812 14.601562 6.546874 14.609375 14.613281.015625 14.691406 11.921875 26.597656 26.613281 26.613281h6.335938c-3.761719 7.664062-4.585938 16.441406-2.308594 24.671875h-54.066406c-3.046876-12.984375-15.339844-21.625-28.589844-20.089844-13.25 1.535157-23.246094 12.753907-23.246094 26.089844 0 13.339844 9.996094 24.558594 23.246094 26.09375s25.542968-7.105469 28.589844-20.09375h60.121093c.894531 1.160156 1.867188 2.257813 2.90625 3.292969-6.417969 5.734375-11.105469 13.144531-13.542969 21.398437-14.46875.316407-26.042968 12.125-26.058593 26.601563-.007813 8.066406-6.546875 14.601562-14.613281 14.609375h-4.265626c-3.046874-12.984375-15.339843-21.625-28.589843-20.089844-13.246094 1.53125-23.242188 12.753906-23.242188 26.089844 0 13.335937 9.996094 24.554687 23.242188 26.089843 13.25 1.53125 25.542969-7.105468 28.589843-20.089843h4.265626c14.691406-.015625 26.59375-11.921875 26.613281-26.613281.011719-7.132813 5.164062-13.214844 12.199219-14.398438 0 .269531-.019532.535156-.019532.804688.023438 18.910156 11.558594 35.902343 29.128906 42.898437v10.335937c-.003906 12.714844 6.675782 24.496094 17.59375 31.019532 10.914063 6.519531 24.453126 6.824218 35.652344.796875 10.773438 8.949219 25.75 10.859375 38.429688 4.90625 12.679687-5.953125 20.773437-18.699219 20.769531-32.707031v-22.152344c1.679687.128906 3.363281.207031 5.050781.207031 1.683594 0 3.367188-.078125 5.046875-.207031v22.160156c-.003906 14.003906 8.089844 26.753906 20.769531 32.707031 12.679688 5.953125 27.65625 4.039063 38.433594-4.910156 11.195313 6.035156 24.738282 5.734375 35.65625-.789063 10.921875-6.523437 17.601563-18.308593 17.597656-31.027343v-10.332031c17.566407-7 29.101563-23.988282 29.128907-42.898438 0-.269531-.015625-.539062-.023438-.804688 7.035157 1.179688 12.191407 7.265626 12.203125 14.398438.019532 14.6875 11.921875 26.585938 26.609375 26.605469h4.265625c3.046875 12.988281 15.34375 21.628906 28.59375 20.09375 13.253906-1.53125 23.25-12.753907 23.25-26.09375 0-13.339844-9.996094-24.5625-23.25-26.097657-13.25-1.53125-25.546875 7.109376-28.59375 20.097657h-4.265625c-8.066406-.007813-14.605469-6.546875-14.613281-14.613281-.019531-14.472657-11.589844-26.285157-26.058594-26.597657-2.4375-8.253906-7.125-15.667969-13.542968-21.402343 1.039062-1.035157 2.007812-2.132813 2.90625-3.289063zm15.460938-16.066406c5.5625-5.558594 14.574219-5.558594 20.136719 0 5.558593 5.5625 5.558593 14.574219 0 20.136719-5.5625 5.558593-14.574219 5.558593-20.136719 0-2.679688-2.664063-4.1875-6.289063-4.1875-10.070313 0-3.777344 1.507812-7.402344 4.1875-10.066406zm-4.546875-77.898438c5.558594-5.5625 14.574218-5.5625 20.136718 0 5.558594 5.558594 5.558594 14.574219 0 20.132813-5.5625 5.5625-14.578124 5.5625-20.136718 0-2.679688-2.664063-4.1875-6.285156-4.1875-10.066406 0-3.777344 1.507812-7.402344 4.1875-10.066407zm-410.292969 20.136719c-5.558594 5.550781-14.566406 5.550781-20.121094-.007812-5.554687-5.558594-5.554687-14.566407 0-20.121094 5.554688-5.558594 14.5625-5.5625 20.121094-.007813 5.550781 5.5625 5.550781 14.570313 0 20.136719zm-4.546875 77.898438c-5.558594 5.554687-14.566406 5.550781-20.121094-.007813-5.558594-5.554687-5.558594-14.5625 0-20.121094 5.554688-5.558593 14.5625-5.558593 20.121094-.007812 5.550781 5.566406 5.550781 14.570312 0 20.136719zm4.546875 77.902343c-5.558594 5.550781-14.566406 5.546875-20.121094-.007812-5.554687-5.558594-5.554687-14.566407 0-20.125 5.554688-5.554688 14.5625-5.558594 20.121094-.003907 5.550781 5.5625 5.550781 14.570313 0 20.132813zm410.292969-20.136719c5.558594-5.5625 14.574218-5.5625 20.136718 0 5.558594 5.558594 5.558594 14.574219 0 20.132813-5.5625 5.5625-14.578124 5.5625-20.136718.003906-2.679688-2.667969-4.1875-6.292969-4.1875-10.070312 0-3.78125 1.507812-7.40625 4.1875-10.070313zm-246.328125 57.246094c-4.734375-.003906-9.367188-1.402344-13.316407-4.015625 5.972657-6.617187 9.277344-15.21875 9.269532-24.132812 0-3.316407-2.6875-6-6-6s-6 2.683593-6 6c-.085938 13.265625-10.863282 23.976562-24.132813 23.976562s-24.046875-10.710937-24.132812-23.976562v-7.339844c1.675781.183594 3.363281.277344 5.046875.28125 3.316406 0 6-2.6875 6-6s-2.683594-6-6-6c-12.253906.066406-23.605469-6.433594-29.753906-17.035156-6.144532-10.601563-6.144532-23.683594 0-34.285157 6.148437-10.601562 17.5-17.101562 29.753906-17.035156 3.316406 0 6-2.6875 6-6 0-3.316406-2.683594-6-6-6-7.125-.007812-14.152344 1.644532-20.527344 4.828125-5.65625-4.53125-8.804688-11.492187-8.472656-18.730469.332031-7.238281 4.101562-13.882812 10.148437-17.875.535157-.355468 1.085938-.683593 1.644531-.992187.109376.199219.207032.402344.316407.597656 1.660156 2.867188 5.332031 3.847657 8.199219 2.1875 2.867187-1.660156 3.847656-5.332031 2.1875-8.199219-8.082032-14.015624-5.234376-31.78125 6.828124-42.566406 12.0625-10.78125 30.035157-11.632812 43.0625-2.035156 1.722657 1.300781 4.011719 1.578125 5.992188.722656 1.984375-.855468 3.351562-2.710937 3.585938-4.855468.238281-2.148438-.699219-4.253907-2.449219-5.519532-1.015625-.75-2.054688-1.453125-3.117188-2.113281-3.714843-7.023437-2.695312-15.613281 2.5625-21.570313 5.257813-5.960937 13.652344-8.042968 21.085938-5.234374 7.433593 2.808593 12.351562 9.925781 12.351562 17.871093v55.210938c-28.871093 7.71875-48.953125 33.875-48.953125 63.757812 0 29.886719 20.082032 56.042969 48.953125 63.761719v24.191406c-.015625 13.316406-10.8125 24.109375-24.132812 24.125zm31.230469-59c-27.410157-5.140625-46.398438-30.304687-43.820313-58.070312 2.582031-27.769532 25.882813-49.003906 53.769531-49.003906 27.886719 0 51.1875 21.234374 53.765625 49.003906 2.582031 27.765625-16.40625 52.929687-43.816406 58.070312-6.578125 1.21875-13.324219 1.21875-19.898437 0zm110.398437-68.566406c-3.3125 0-6 2.6875-6 6s2.6875 6 6 6c12.253906-.066406 23.605469 6.433594 29.753906 17.035156 6.148438 10.601563 6.148438 23.683594 0 34.285156-6.148437 10.601563-17.5 17.101563-29.753906 17.035157-3.3125 0-6 2.6875-6 6 0 3.316406 2.6875 6 6 6 1.6875 0 3.371094-.09375 5.050781-.28125v7.339843c-.085937 13.269532-10.867187 23.980469-24.136718 23.980469-13.265626 0-24.046876-10.710937-24.132813-23.980469 0-3.3125-2.6875-6-6-6s-6 2.6875-6 6c-.007813 8.917969 3.296875 17.515626 9.269531 24.136719-7.40625 4.90625-16.910156 5.347657-24.738281 1.144531-7.828125-4.207031-12.710937-12.375-12.710937-21.257812v-24.191406c28.871093-7.71875 48.953124-33.875 48.953124-63.761719 0-29.882813-20.082031-56.039063-48.953124-63.757813v-55.210937c0-7.949219 4.917968-15.070313 12.351562-17.878906 7.433594-2.8125 15.835938-.726563 21.09375 5.234375 5.257812 5.960937 6.273438 14.554687 2.554688 21.578125-1.0625.660156-2.101563 1.367187-3.117188 2.113281-1.75 1.265625-2.683594 3.371094-2.449219 5.519531.234375 2.144531 1.605469 4 3.585938 4.855469s4.269531.578125 5.992187-.722656c13.027344-9.589844 30.996094-8.738282 43.058594 2.042968 12.058594 10.78125 14.910156 28.542969 6.832031 42.558594-1.660156 2.867188-.679687 6.539063 2.1875 8.199219 2.871094 1.660156 6.539063.679687 8.199219-2.191406.113281-.191407.207031-.398438.316406-.59375.5625.308593 1.113282.636719 1.648438.992187 6.042968 3.992188 9.8125 10.636719 10.144531 17.875.332031 7.238282-2.816406 14.199219-8.472656 18.730469-6.375-3.179687-13.402344-4.832031-20.527344-4.824219zm0 0"/><path d="m232.726562 169.457031c1.910157-2.707031 1.261719-6.453125-1.445312-8.363281l-15.320312-10.796875 15.320312-10.796875c2.566406-1.957031 3.125-5.59375 1.265625-8.230469s-5.472656-3.332031-8.179687-1.570312l-22.277344 15.699219c-1.597656 1.125-2.542969 2.953124-2.542969 4.902343 0 1.953125.945313 3.78125 2.542969 4.90625l22.277344 15.699219c2.707031 1.910156 6.449218 1.261719 8.359374-1.445312zm0 0"/><path d="m255.691406 109.457031c-3.226562-.753906-6.453125 1.25-7.207031 4.480469l-16.335937 70c-.503907 2.089844.15625 4.292969 1.722656 5.769531 1.566406 1.476563 3.804687 1.996094 5.863281 1.367188 2.0625-.628907 3.625-2.3125 4.101563-4.414063l16.335937-70c.753906-3.226562-1.253906-6.453125-4.480469-7.203125zm0 0"/><path d="m259.410156 131.140625c-1.910156 2.707031-1.261718 6.453125 1.449219 8.359375l15.316406 10.796875-15.316406 10.800781c-2.710937 1.910156-3.359375 5.652344-1.449219 8.363282 1.910156 2.707031 5.652344 3.355468 8.363282 1.445312l22.273437-15.699219c1.597656-1.125 2.542969-2.953125 2.542969-4.90625 0-1.949219-.945313-3.777343-2.542969-4.902343l-22.277344-15.699219c-2.707031-1.910157-6.449219-1.261719-8.359375 1.441406zm0 0"/></svg>