<svg id="Layer_1" height="512" viewBox="0 0 512 512" width="512" xmlns="http://www.w3.org/2000/svg" data-name="Layer 1"><path d="m484.572 137h-381.834l-15.79-68.64a5.743 5.743 0 0 0 -5.848-4.36h-60.1v12h55.318l61.182 267h-15.677a5.762 5.762 0 0 0 -5.823 5.893v70.691c0 3.313 2.51 6.416 5.823 6.416h41.327a28.672 28.672 0 0 0 56.055 0h157.507a28.452 28.452 0 0 0 28.027 22.418 28.649 28.649 0 1 0 -28.05-34.418h-157.461a28.674 28.674 0 0 0 -56.1 0h-35.128v-59h312.676a6.047 6.047 0 0 0 5.867-4.8l43.9-205.529a6.456 6.456 0 0 0 -1.2-5.236 6.211 6.211 0 0 0 -4.671-2.435zm-79.833 265.861a16.675 16.675 0 1 1 -16.675 16.675 16.693 16.693 0 0 1 16.675-16.675zm-213.561 0a16.675 16.675 0 1 1 -16.678 16.675 16.694 16.694 0 0 1 16.678-16.675zm244.644-59.861h-286.015l-44.321-194h371.669z"/><path d="m142.238 180.47h12v15.624h-12z" transform="matrix(.975 -.223 .223 .975 -38.295 37.849)"/><path d="m158.806 211.477h12v98.277h-12z" transform="matrix(.975 -.223 .223 .975 -54.017 43.365)"/><path d="m312 189a6 6 0 0 0 -6-6h-30a6 6 0 0 0 -6 6v120a6 6 0 0 0 6 6h30a6 6 0 0 0 6-6zm-30 6h18v108h-18z"/><path d="m244 189a6 6 0 0 0 -6-6h-30a6 6 0 0 0 -6 6v120a6 6 0 0 0 6 6h30a6 6 0 0 0 6-6zm-30 6h18v108h-18z"/><path d="m380 189a6 6 0 0 0 -6-6h-30a6 6 0 0 0 -6 6v120a6 6 0 0 0 6 6h30a6 6 0 0 0 6-6zm-30 6h18v108h-18z"/></svg>