<svg id="Layer_1" height="512" viewBox="0 0 512 512" width="512" xmlns="http://www.w3.org/2000/svg" data-name="Layer 1"><path d="m135.662 198.489a6 6 0 1 0 -7.982 8.96q4.1 3.657 8.234 7.367a6 6 0 1 0 8.022-8.924q-4.149-3.729-8.274-7.403z"/><path d="m215.543 272.439c-18.986-18.193-37.851-35.848-56.066-52.473a6 6 0 0 0 -8.09 8.864c18.145 16.56 36.936 34.147 55.853 52.274a6 6 0 0 0 8.3-8.665z"/><path d="m446.222 356.123a24.586 24.586 0 0 0 -4.4-34.225c-38.409-30.515-105.285-92.229-138.416-123.96a1380.075 1380.075 0 0 1 -148.606-167.588l-1.761-1.839c-3.888-3.869-11.7-7-26.869.047-10.004 4.652-21.116 12.842-31.287 23.069-20.119 20.224-34.417 46.737-22.815 58.279l18.816 16.511q-1.547 1.467-3.072 2.992c-20.12 20.224-34.412 46.737-22.812 58.279l140.98 130.273a35.469 35.469 0 0 0 -5.518 12.145l-57.906 9.014a9.192 9.192 0 0 0 -4.851 15.813l10.684 9.95-4.31 13.044a9.213 9.213 0 0 0 8.714 12.091 9.247 9.247 0 0 0 3.039-.517l49.458-18.371-18.37 49.345a9.2 9.2 0 0 0 11.488 11.839l13.072-4.214 9.872 10.756a9.133 9.133 0 0 0 6.748 2.988 9.279 9.279 0 0 0 2.667-.394 9.132 9.132 0 0 0 6.438-7.364l9.63-61.634a35.3 35.3 0 0 0 9-4.6c48 49.5 81.642 86.574 100 110.227a24.67 24.67 0 0 0 34.519 4.419 297.842 297.842 0 0 0 26.638-23.216 233.518 233.518 0 0 0 22.159-25.373 24.584 24.584 0 0 0 -4.4-34.225c-4.9-3.9-10.279-8.308-15.982-13.1 1.829-1.709 3.6-3.41 5.3-5.088a233.66 233.66 0 0 0 22.153-25.373zm-159.449-157.577q4.152 4.044 8.328 8.058c2.348 2.249 4.881 4.662 7.545 7.19-5.4 8.168-9.2 12.065-21.428 24.269-1.923 1.919-7.814 7.362-11.847 11.086q-7.85-7.947-15.575-16.029c3.975-3.41 8.8-7.783 14.044-13.176l2.039-2.095c9.056-9.307 12.514-12.87 16.894-19.303zm-206.242-97.146c-2.741-2.727 1.731-20.07 22.86-41.309 9.2-9.246 19.086-16.58 27.842-20.651 4.933-2.293 8.548-3.054 10.8-3.054a3.8 3.8 0 0 1 2.548.633c2.741 2.727-1.729 20.071-22.858 41.309-9.2 9.246-19.086 16.58-27.844 20.651-7.836 3.642-12.345 3.421-13.348 2.421zm-7.071 77.781c-2.741-2.727 1.73-20.071 22.859-41.309 9.2-9.246 19.086-16.58 27.843-20.651 4.933-2.293 8.547-3.054 10.8-3.054a3.8 3.8 0 0 1 2.548.633c1 1 1.25 5.505-2.352 13.359-4.026 8.778-11.308 18.7-20.507 27.95-21.13 21.24-38.451 25.796-41.191 23.072zm12.347 10.824c11.815-3.874 25.651-13.671 37.351-25.433 10.171-10.224 18.306-21.379 22.906-31.41.781-1.7 1.427-3.305 1.966-4.826q19.2 24.957 39.574 49.076a6 6 0 0 0 8.824.361l.022-.022a5.991 5.991 0 0 0 .332-8.108q-25.415-30.084-49.05-61.512l-1.76-1.839c-3.888-3.869-11.7-7-26.869.047a97.877 97.877 0 0 0 -19.08 12.127q-3.562-3.127-7.1-6.21a55.7 55.7 0 0 0 6.013-2.4c10.007-4.652 21.12-12.845 31.291-23.068 11.308-11.362 20.773-24.713 24.841-36.277a1393.648 1393.648 0 0 0 123 139.47c-4.43 6.8-7.136 9.581-16.788 19.5l-2.042 2.1c-5.135 5.282-9.866 9.543-13.71 12.823q-11.426-12.16-22.558-24.613a5.993 5.993 0 0 0 -8.708-.251 6 6 0 0 0 -.236 8.243q27.621 30.86 56.974 59.98c-4.431 6.8-7.138 9.58-16.788 19.5l-2.043 2.1a167.6 167.6 0 0 1 -14.839 13.585 35.693 35.693 0 0 0 -22.878 6.515c-44.634-43.737-88.763-84.711-128.645-119.458zm71.493 186.151 3.045-9.215a9.224 9.224 0 0 0 -2.466-9.616l-7.77-7.237 49.556-7.713a35.677 35.677 0 0 0 5.708 15.922zm68.954 50.294-7.147-7.786a9.22 9.22 0 0 0 -9.595-2.536l-9.285 2.992 18.215-48.928a35.578 35.578 0 0 0 15.953 4.157zm25.763-71.017a23.543 23.543 0 0 1 -16.76 6.938h-.025a23.716 23.716 0 1 1 16.786-6.937zm-.651-48.679c2.877-2.558 5.892-5.415 9.4-9.028l2.04-2.1c9.055-9.306 12.512-12.869 16.893-19.3q4.152 4.044 8.328 8.059c2.348 2.248 4.881 4.662 7.545 7.189-5.4 8.169-9.2 12.066-21.429 24.27-1.4 1.393-4.276 4.037-7.09 6.6a35.73 35.73 0 0 0 -15.691-15.691zm175.915 102.322a12.651 12.651 0 0 1 2.283 17.61 221.368 221.368 0 0 1 -21.016 24.065 285.714 285.714 0 0 1 -25.531 22.249 12.659 12.659 0 0 1 -17.7-2.282c-18.647-24.018-52.617-61.465-100.985-111.339a35.728 35.728 0 0 0 6.443-24.1l2.009-1.827c3.5-3.178 7.849-7.132 9.84-9.12 11.916-11.895 16.366-16.445 21.8-24.406 35.75 33.636 89.725 82.827 122.857 109.15zm-11.663-36.106c-1.926 1.907-3.964 3.847-6.073 5.8-37.964-32.493-86.531-77.491-113.214-103.047q-9.324-8.931-18.488-18.06c4.283-3.956 9.818-9.074 11.852-11.1 11.916-11.9 16.366-16.446 21.8-24.407 35.755 33.634 89.732 82.825 122.86 109.144a12.653 12.653 0 0 1 2.283 17.611 221.613 221.613 0 0 1 -21.02 24.059z"/></svg>