<?xml version="1.0"?>
<svg xmlns="http://www.w3.org/2000/svg" id="Layer_1" data-name="Layer 1" viewBox="0 0 512 512" width="512" height="512"><title>Factory 03</title><path d="M180.146,29.6a21.13,21.13,0,0,0-29.585,4.213c-.082.11-.163.22-.243.331A21.109,21.109,0,0,0,125.225,51.4,21.121,21.121,0,0,0,114.287,89.35q.648.486,1.327.919A21.145,21.145,0,0,0,142,104.367a20.937,20.937,0,0,0,18.98-1.112,20.928,20.928,0,0,0,11,3.118,21.431,21.431,0,0,0,3.024-.216,21.13,21.13,0,0,0,9.7-37.821q-.848-.636-1.746-1.181a21.337,21.337,0,0,0-.261-6.011,21.137,21.137,0,0,0-2.552-31.54Zm-.821,61.117a9.131,9.131,0,0,1-12.784,1.818,8.865,8.865,0,0,1-1.122-1,6,6,0,0,0-4.279-1.876h-.08a6,6,0,0,0-4.248,1.763,9.156,9.156,0,0,1-11.256,1.282,6,6,0,0,0-5.778-.324,9.128,9.128,0,0,1-12.972-6.946,6,6,0,0,0-3.553-4.657,8.742,8.742,0,0,1-1.763-1.033,9.13,9.13,0,0,1,8.073-16.058,6,6,0,0,0,7.58-6.993,9.119,9.119,0,0,1,13.211-9.925,6,6,0,0,0,8.5-3.327,8.915,8.915,0,0,1,1.3-2.428A9.131,9.131,0,1,1,172.52,54.1a6,6,0,0,0-2.188,7.366,9.128,9.128,0,0,1,.1,6.944,6,6,0,0,0,4.019,8.024,8.893,8.893,0,0,1,3.053,1.5A9.144,9.144,0,0,1,179.325,90.721Z"/><path d="M486,475H475.6V299.508a6,6,0,0,0-3.561-5.483l-17.955-7.987V215.694a6,6,0,0,0-6-6h-16.3V60.457a6,6,0,0,0-6-6H403.052a6,6,0,0,0-6,6V209.694H347.42a6,6,0,0,0-6,6v20.223l-19.671-8.75a6,6,0,0,0-5.082.095l-53.806,26.4-55.536-24.706c-4.064-45.245-7.084-80.978-7.32-89.695a26.02,26.02,0,0,0-26.151-25.45h-38.36a26.025,26.025,0,0,0-26.151,25.443c-.3,11-5.165,66.384-10.938,129.38L41.936,293.758a6,6,0,0,0-3.561,5.482V475H26a6,6,0,0,0,0,12H486a6,6,0,0,0,0-12ZM409.052,66.457h10.733V209.694H409.052ZM353.42,221.694h88.666V280.7L353.42,241.256Zm-33.985,17.577L463.6,303.4V475H448.345V365.313a6,6,0,0,0-6-6H380.129a6,6,0,0,0-6,6V475H357.152V299.508a6,6,0,0,0-3.561-5.483l-76.441-34ZM436.345,475H386.129V371.313h50.216ZM345.152,303.4V475H230.346c-.376-3.923-.979-10.219-1.761-18.4h33.282a6,6,0,0,0,6-6V411.117a6,6,0,0,0-6-6H223.685q-.333-3.513-.676-7.133l38.855.018h0a6,6,0,0,0,6-6V352.519a6,6,0,0,0-6-6H218.16q-.333-3.544-.667-7.116h44.374a6,6,0,0,0,6-6V293.92a6,6,0,0,0-6-6H212.7c-1.431-15.494-2.829-30.757-4.145-45.279Zm-235.4-26.975h89.838q.805,8.752,1.626,17.634a6.147,6.147,0,0,0,.074.8c1.192,12.884,2.4,25.876,3.6,38.686a5.877,5.877,0,0,0,.076.812C210.879,397.652,216.5,456.307,218.291,475H91.066C93.4,450.632,102.223,358.353,109.748,276.43ZM224.823,417.117h31.044V444.6H227.439C226.666,436.492,225.784,427.237,224.823,417.117Zm-5.537-58.6h36.581V386l-33.992-.016C221.039,377.135,220.172,367.938,219.286,358.519Zm-5.472-58.6h42.053V327.4h-39.5C215.519,318.28,214.663,309.084,213.814,299.92Zm-19.171-77.979H114.689q.437-4.893.854-9.608H193.79Q194.207,217.044,194.643,221.941Zm1.076,12c.883,9.812,1.811,20.03,2.767,30.489H110.848c.956-10.46,1.883-20.677,2.766-30.489Zm-74.381-94.355a14.088,14.088,0,0,1,14.156-13.773h38.36a14.085,14.085,0,0,1,14.156,13.774c.187,6.924,2.027,29.836,4.725,60.746H116.6C119.3,169.359,121.15,146.427,121.338,139.586ZM50.375,303.138l46.772-20.807C89.62,364.052,81.032,453.893,79.01,475H50.375Z"/></svg>
