<?xml version="1.0"?>
<svg xmlns="http://www.w3.org/2000/svg" id="Layer_1" data-name="Layer 1" viewBox="0 0 512 512" width="512" height="512"><path d="M461,379.64H438.8l.02-2.657a30.835,30.835,0,0,0-30.83-31.053H103.83A30.865,30.865,0,0,0,73,376.76v2.88H51a6,6,0,0,0-6,6v74a6,6,0,0,0,6,6H73.028a30.867,30.867,0,0,0,30.8,29.72H218.35a6,6,0,0,0,5.447-3.484l8.149-17.637a25.671,25.671,0,0,1,46.356-.518L287.262,492a6,6,0,0,0,5.388,3.36H357a6,6,0,0,0,0-12H296.391l-7.313-14.92a37.671,37.671,0,0,0-68.025.764l-6.54,14.156H103.83A18.857,18.857,0,0,1,85,464.52V376.76a18.851,18.851,0,0,1,18.83-18.83H407.99A18.835,18.835,0,0,1,426.82,376.9l-.64,87.758a18.886,18.886,0,0,1-18.83,18.7H382.333a6,6,0,1,0,0,12H407.35a30.915,30.915,0,0,0,30.8-29.72H461a6,6,0,0,0,6-6v-74A6,6,0,0,0,461,379.64Zm-388,74H57v-62H73Zm382,0H438.261l.452-62H455Z"/><path d="M130.37,371.87a6,6,0,0,0,0,12h75.07a6,6,0,0,0,0-12Z"/><path d="M105.7,371.87a6,6,0,1,0,0,12h7.05a6,6,0,0,0,0-12Z"/><path d="M469.127,254.759c-.724-31.035-7.3-62.576-18.694-89.413A206.887,206.887,0,0,0,393,87.946V78.6a33.809,33.809,0,0,0-56.854-24.749,213.767,213.767,0,0,0-47.739-13.073A34.083,34.083,0,0,0,256,16.64,33.793,33.793,0,0,0,223.6,40.8a213.552,213.552,0,0,0-47.706,13.1A33.812,33.812,0,0,0,119,78.6v9.471a207.576,207.576,0,0,0-57.373,77.394c-11.386,26.819-17.974,58.311-18.746,89.287a33.221,33.221,0,0,0,4.769,66.1h416.7a33.218,33.218,0,0,0,4.777-66.091ZM337.36,78.6A21.89,21.89,0,0,1,342.3,64.771l.006-.006a21.423,21.423,0,0,1,1.444-1.592A21.818,21.818,0,0,1,381,78.6v57.16a21.834,21.834,0,0,1-21.8,21.82c-.2,0-.4,0-.655-.008A21.716,21.716,0,0,1,337.36,135.76ZM234.18,50.46a22.451,22.451,0,0,1,.252-3.338A21.84,21.84,0,0,1,256,28.64a21.945,21.945,0,0,1,21.567,18.477,22.4,22.4,0,0,1,.253,3.343v85.3a21.834,21.834,0,0,1-21.8,21.82c-.2,0-.4,0-.655-.008A21.716,21.716,0,0,1,234.18,135.76ZM131,78.6a21.812,21.812,0,0,1,38.718-13.791l.009.011A21.522,21.522,0,0,1,174.64,78.6v57.16a21.835,21.835,0,0,1-21.8,21.82c-.195,0-.4,0-.655-.008A21.716,21.716,0,0,1,131,135.76ZM479.362,302.633a21.121,21.121,0,0,1-15.012,6.217H47.65a21.22,21.22,0,1,1,0-42.44h60.683a6,6,0,0,0,0-12H54.89c.8-29.278,7.051-58.977,17.782-84.255A195.338,195.338,0,0,1,119,104.092V135.76a33.648,33.648,0,0,0,32.791,33.806c.354.013.708.014,1.049.014a33.848,33.848,0,0,0,33.8-33.82V78.6a33.851,33.851,0,0,0-3.384-14.713,201.577,201.577,0,0,1,38.924-10.7V135.76a33.649,33.649,0,0,0,32.791,33.806c.354.013.708.014,1.049.014a33.849,33.849,0,0,0,33.8-33.82v-82.6a201.819,201.819,0,0,1,38.946,10.681A33.891,33.891,0,0,0,325.36,78.6v57.16a33.648,33.648,0,0,0,32.79,33.806c.354.013.709.014,1.05.014A33.849,33.849,0,0,0,393,135.76V103.946a194.734,194.734,0,0,1,46.388,66.09c10.743,25.294,16.971,55.036,17.732,84.374H137a6,6,0,1,0,0,12H464.35a21.224,21.224,0,0,1,15.012,36.223Z"/></svg>
