<?xml version="1.0"?>
<svg xmlns="http://www.w3.org/2000/svg" id="Layer_1" data-name="Layer 1" viewBox="0 0 512 512" width="512" height="512"><title>Lock mobile</title><path d="M176,35a46.052,46.052,0,0,0-46,46V431a46.052,46.052,0,0,0,46,46H336a46.052,46.052,0,0,0,46-46V81a46.052,46.052,0,0,0-46-46ZM336,465H176a34.038,34.038,0,0,1-34-34V405H370v26A34.038,34.038,0,0,1,336,465ZM370,81V95H356a6,6,0,0,0,0,12h14V393H142V107H305a6,6,0,0,0,0-12H142V81a34.038,34.038,0,0,1,34-34H336A34.038,34.038,0,0,1,370,81Z"/><path d="M324.7,95a6,6,0,0,0,0,12H335.81a6,6,0,0,0,0-12Z"/><path d="M256,414a21,21,0,1,0,21,21A21.024,21.024,0,0,0,256,414Zm0,30a9,9,0,1,1,9-9A9.01,9.01,0,0,1,256,444Z"/><path d="M296,235.25h-4v-29.5a36,36,0,0,0-72,0v29.5h-4a16.018,16.018,0,0,0-16,16v75a16.018,16.018,0,0,0,16,16h80a16.018,16.018,0,0,0,16-16v-75A16.018,16.018,0,0,0,296,235.25Zm-64-29.5a24,24,0,0,1,48,0v29.5H232Zm68,120.5a4,4,0,0,1-4,4H216a4,4,0,0,1-4-4v-75a4,4,0,0,1,4-4h80a4,4,0,0,1,4,4Z"/><path d="M256,298.75a6,6,0,0,0-6,6v8a6,6,0,0,0,12,0v-8A6,6,0,0,0,256,298.75Z"/></svg>
