<svg id="Layer_1" data-name="Layer 1" xmlns="http://www.w3.org/2000/svg" viewBox="0 0 1000.981 964.677">
  <g>
    <rect x="682.62" y="14.392" width="172.061" height="223.958" fill="#f4f4f4"></rect>
    <rect x="854.681" y="14.392" width="5.582" height="223.958" transform="translate(1714.944 252.743) rotate(180)" fill="#f4f4f4"></rect>
    <rect x="854.681" y="14.392" width="5.582" height="223.958" transform="translate(1714.944 252.743) rotate(180)" fill="#292a2e" opacity="0.05"></rect>
    <rect x="713.963" y="55.189" width="109.375" height="142.365" fill="#292a2e" opacity="0.05"></rect>
    <rect x="817.638" y="55.189" width="5.7" height="142.365" fill="#292a2e" opacity="0.03"></rect>
    <rect x="854.681" y="293.426" width="140.718" height="142.01" fill="#f4f4f4"></rect>
    <rect x="880.315" y="319.295" width="89.451" height="90.272" fill="#292a2e" opacity="0.05"></rect>
    <rect x="995.399" y="293.426" width="5.582" height="142.01" transform="translate(1996.38 728.862) rotate(180)" fill="#f4f4f4"></rect>
    <rect x="995.399" y="293.426" width="5.582" height="142.01" transform="translate(1996.38 728.862) rotate(180)" fill="#292a2e" opacity="0.05"></rect>
    <rect x="964.066" y="319.295" width="5.7" height="90.272" fill="#292a2e" opacity="0.03"></rect>
  </g>
  <g>
    <rect id="c_3_c" x="18.674" width="468.757" height="468.757" fill="#f4f4f4"></rect>
    <rect id="c_3_c-2" data-name="c_3_c" x="487.431" width="5.373" height="468.757" fill="#f4f4f4"></rect>
    <rect id="c_3_c-3" data-name="c_3_c" x="487.431" width="5.373" height="468.757" fill="#292a2e" opacity="0.05"></rect>
    <polygon id="c_3_c-4" data-name="c_3_c" points="373.872 323.012 373.872 200.37 273.41 200.37 273.41 271.622 117.794 271.622 117.794 397.784 51.655 397.784 51.655 468.757 117.794 468.757 130.536 468.757 464.882 468.757 464.882 323.012 373.872 323.012" fill="#292a2e" opacity="0.05"></polygon>
    <g id="c_3_wh">
      <rect id="c_3_wh-2" data-name="c_3_wh" x="286.306" y="213.686" width="73.158" height="13.316" fill="#fffffa" opacity="0.34"></rect>
      <rect id="c_3_wh-3" data-name="c_3_wh" x="286.306" y="241.28" width="73.158" height="13.316" fill="#fffffa" opacity="0.34"></rect>
      <rect id="c_3_wh-4" data-name="c_3_wh" x="286.306" y="268.874" width="73.158" height="13.316" fill="#fffffa" opacity="0.34"></rect>
    </g>
    <g id="c_3_wh-5" data-name="c_3_wh">
      <rect id="c_3_wh-6" data-name="c_3_wh" x="438.425" y="335.938" width="13.484" height="13.316" fill="#fffffa" opacity="0.34"></rect>
      <rect id="c_3_wh-7" data-name="c_3_wh" x="438.425" y="363.532" width="13.484" height="13.316" fill="#fffffa" opacity="0.34"></rect>
      <rect id="c_3_wh-8" data-name="c_3_wh" x="438.425" y="391.126" width="13.484" height="13.316" fill="#fffffa" opacity="0.34"></rect>
      <rect id="c_3_wh-9" data-name="c_3_wh" x="413.48" y="335.938" width="13.484" height="13.316" fill="#fffffa" opacity="0.34"></rect>
      <rect id="c_3_wh-10" data-name="c_3_wh" x="413.48" y="363.532" width="13.484" height="13.316" fill="#fffffa" opacity="0.34"></rect>
      <rect id="c_3_wh-11" data-name="c_3_wh" x="413.48" y="391.126" width="13.484" height="13.316" fill="#fffffa" opacity="0.34"></rect>
      <rect id="c_3_wh-12" data-name="c_3_wh" x="389.209" y="335.938" width="13.484" height="13.316" fill="#fffffa" opacity="0.34"></rect>
      <rect id="c_3_wh-13" data-name="c_3_wh" x="389.209" y="363.532" width="13.484" height="13.316" fill="#fffffa" opacity="0.34"></rect>
      <rect id="c_3_wh-14" data-name="c_3_wh" x="389.209" y="391.126" width="13.484" height="13.316" fill="#fffffa" opacity="0.34"></rect>
    </g>
    <polygon points="487.431 231.749 393.109 231.749 393.109 0 385.309 0 385.309 231.749 130.536 231.749 130.536 0 122.735 0 122.735 231.749 18.674 231.749 18.674 239.55 122.735 239.55 122.735 468.757 130.536 468.757 130.536 239.55 385.309 239.55 385.309 468.757 393.109 468.757 393.109 239.55 487.431 239.55 487.431 231.749" fill="#fff"></polygon>
    <rect id="c_3_c-5" data-name="c_3_c" y="468.192" width="506.105" height="15.589" fill="#f4f4f4"></rect>
    <rect id="c_3_c-6" data-name="c_3_c" y="468.192" width="506.105" height="15.589" fill="#292a2e" opacity="0.1"></rect>
    <rect id="c_3_c-7" data-name="c_3_c" x="506.105" y="468.192" width="7.307" height="15.589" fill="#292a2e" opacity="0.1"></rect>
    <rect id="c_3_c-8" data-name="c_3_c" x="506.105" y="468.192" width="7.307" height="15.589" fill="#292a2e" opacity="0.1"></rect>
  </g>
  <g>
    <g>
      <rect x="727.508" y="944.854" width="26.039" height="17.39" fill="#292a2e" opacity="0.05"></rect>
      <rect x="890.971" y="944.854" width="26.039" height="17.39" fill="#292a2e" opacity="0.05"></rect>
    </g>
    <rect x="703.639" y="679.905" width="237.239" height="264.949" fill="#f4f4f4"></rect>
    <rect x="703.639" y="679.905" width="237.239" height="264.949" fill="#292a2e" opacity="0.03"></rect>
    <rect x="640.633" y="679.905" width="237.239" height="264.949" fill="#f4f4f4"></rect>
    <g>
      <rect x="664.502" y="944.854" width="26.039" height="17.39" fill="#292a2e" opacity="0.05"></rect>
      <rect x="827.964" y="944.854" width="26.039" height="17.39" fill="#292a2e" opacity="0.05"></rect>
    </g>
    <rect x="653.395" y="696.287" width="211.713" height="67.198" fill="#fff" opacity="0.7"></rect>
    <rect x="653.395" y="779.933" width="211.713" height="67.198" fill="#fff" opacity="0.7"></rect>
    <rect x="653.395" y="863.578" width="211.713" height="67.198" fill="#fff" opacity="0.7"></rect>
    <circle cx="759.252" cy="729.886" r="9.403" fill="#292a2e" opacity="0.05"></circle>
    <circle cx="759.252" cy="813.532" r="9.403" fill="#292a2e" opacity="0.05"></circle>
    <circle cx="759.252" cy="897.178" r="9.403" fill="#292a2e" opacity="0.05"></circle>
  </g>
  <g>
    <path d="M111.5,833.535a.993.993,0,0,1-.707-.293c-1.409-1.408-3.706-27.259-9.892-104.223-2.531-31.492-4.922-61.238-6.667-79.315-.124-1.291-.625-1.441-.789-1.491-2.389-.72-9.652,5.007-13.707,10.023a1,1,0,0,1-1.556-1.258c2.682-3.316,11.422-12.009,15.838-10.68.89.267,2,1.042,2.2,3.214,1.747,18.093,4.138,47.846,6.67,79.347,3.759,46.77,8.017,99.756,9.417,103.093a1,1,0,0,1-.812,1.583Z" fill="#494949"></path>
    <ellipse cx="73.901" cy="660.721" rx="38.507" ry="28.398" transform="translate(-397.005 191.402) rotate(-38.715)" fill="#03A9F4"></ellipse>
    <ellipse cx="73.901" cy="660.721" rx="38.507" ry="28.398" transform="translate(-397.005 191.402) rotate(-38.715)" fill="#fff" opacity="0.2"></ellipse>
    <path d="M48.508,687.914a.5.5,0,0,1-.385-.819l47.291-57.029a.5.5,0,0,1,.77.639L48.893,687.733A.5.5,0,0,1,48.508,687.914Z" fill="#fff"></path>
    <path d="M121.812,821.31a.968.968,0,0,1-.328-.057,1,1,0,0,1-.616-1.273l17.764-51.086a9.5,9.5,0,0,1,15.528-3.748l9.392,8.971a1,1,0,0,1-1.382,1.447l-9.391-8.972a7.5,7.5,0,0,0-12.259,2.959l-17.763,51.087A1,1,0,0,1,121.812,821.31Z" fill="#494949"></path>
    <ellipse cx="165.891" cy="772.203" rx="28.398" ry="38.507" transform="translate(-443.447 269.685) rotate(-38.363)" fill="#03A9F4"></ellipse>
    <path d="M103.428,830.277a1,1,0,0,1-.972-.767L72.645,704.865a4.751,4.751,0,0,0-8.212-2l-9.19,10.619a1,1,0,1,1-1.512-1.308l9.189-10.619A6.751,6.751,0,0,1,74.591,704.4L104.4,829.045a1,1,0,0,1-.74,1.205A.981.981,0,0,1,103.428,830.277Z" fill="#494949"></path>
    <ellipse cx="64.446" cy="736.331" rx="38.507" ry="28.398" transform="translate(-672.098 674.37) rotate(-80.189)" fill="#03A9F4"></ellipse>
    <path d="M111.5,833.535a1.014,1.014,0,0,1-.123-.007,1,1,0,0,1-.871-1.115l19.036-154.558a8.807,8.807,0,0,1,15.342-4.752l21.758,24.643a1,1,0,1,1-1.5,1.324l-21.758-24.643a6.806,6.806,0,0,0-11.857,3.673L112.491,832.657A1,1,0,0,1,111.5,833.535Z" fill="#494949"></path>
    <ellipse cx="155.261" cy="692.802" rx="28.398" ry="38.507" transform="translate(-526.128 493.325) rotate(-61.051)" fill="#03A9F4"></ellipse>
    <ellipse cx="165.891" cy="772.203" rx="28.398" ry="38.507" transform="translate(-443.447 269.685) rotate(-38.363)" fill="#fff" opacity="0.2"></ellipse>
    <ellipse cx="64.446" cy="736.331" rx="38.507" ry="28.398" transform="translate(-672.098 674.37) rotate(-80.189)" fill="#fff" opacity="0.5"></ellipse>
    <ellipse cx="155.261" cy="692.802" rx="28.398" ry="38.507" transform="translate(-526.128 493.325) rotate(-61.051)" fill="#fff" opacity="0.5"></ellipse>
    <polygon points="135.846 964.677 87.15 964.677 79.08 808.873 143.915 808.873 135.846 964.677" fill="#292a2e"></polygon>
    <polygon points="135.846 964.677 87.15 964.677 79.08 808.873 143.915 808.873 135.846 964.677" fill="#fff" opacity="0.3"></polygon>
    <path d="M189.791,802.9a.5.5,0,0,1-.392-.19l-47.8-60.386a.5.5,0,1,1,.784-.621l47.8,60.386a.5.5,0,0,1-.392.811Z" fill="#fff"></path>
    <path d="M185.778,716.279a.5.5,0,0,1-.295-.1l-61.166-44.662a.5.5,0,1,1,.59-.808l61.166,44.663a.5.5,0,0,1-.3.9Z" fill="#fff"></path>
    <path d="M55.4,773.627a.477.477,0,0,1-.129-.017A.5.5,0,0,1,54.92,773l19.471-72.954a.5.5,0,1,1,.966.258L55.886,773.256A.5.5,0,0,1,55.4,773.627Z" fill="#fff"></path>
  </g>
  <g>
    <g>
      <g>
        <rect x="137.472" y="55.037" width="634.688" height="693.975" rx="30" fill="#fff"></rect>
        <path d="M741.592,749.164H166.9a31.036,31.036,0,0,1-31-31V84.189a31.036,31.036,0,0,1,31-31H741.592a31.035,31.035,0,0,1,31,31V718.164A31.035,31.035,0,0,1,741.592,749.164ZM166.9,55.189a29.034,29.034,0,0,0-29,29V718.164a29.033,29.033,0,0,0,29,29H741.592a29.033,29.033,0,0,0,29-29V84.189a29.034,29.034,0,0,0-29-29Z" fill="#292a2e"></path>
      </g>
      <path d="M771.591,84.185v23.188H136.907V84.185a30,30,0,0,1,30-30H741.591A30,30,0,0,1,771.591,84.185Z" fill="#292a2e"></path>
    </g>
    <g>
      <circle cx="242.731" cy="218.194" r="73.345" fill="#03A9F4" opacity="0.1"></circle>
      <circle cx="242.731" cy="189.563" r="25.475" fill="#03A9F4" opacity="0.2"></circle>
      <path d="M297.87,266.559a73.337,73.337,0,0,1-110.28-.01,57.512,57.512,0,0,1,110.28.01Z" fill="#03A9F4" opacity="0.2"></path>
    </g>
    <rect x="171.464" y="341.574" width="112.406" height="12.992" rx="6.496" fill="#03A9F4" opacity="0.2"></rect>
    <rect x="346.768" y="149.775" width="177.391" height="43.043" rx="10.565" fill="#03A9F4" opacity="0.1"></rect>
    <rect x="346.768" y="216.614" width="244.215" height="10" rx="5" fill="#03A9F4" opacity="0.2"></rect>
    <rect x="346.768" y="246.614" width="244.215" height="10" rx="5" fill="#03A9F4" opacity="0.2"></rect>
    <rect x="346.768" y="276.614" width="204.215" height="10" rx="5" fill="#03A9F4" opacity="0.2"></rect>
    <rect x="171.464" y="373.306" width="262.938" height="41.984" rx="9.391" fill="#03A9F4" opacity="0.1"></rect>
    <rect x="470.821" y="341.574" width="112.406" height="12.992" rx="6.496" fill="#03A9F4" opacity="0.2"></rect>
    <rect x="470.821" y="373.306" width="262.938" height="41.984" rx="9.391" fill="#03A9F4" opacity="0.1"></rect>
    <rect x="171.464" y="450" width="112.406" height="12.992" rx="6.496" fill="#03A9F4" opacity="0.2"></rect>
    <rect x="171.464" y="481.732" width="262.938" height="41.984" rx="9.391" fill="#03A9F4" opacity="0.1"></rect>
    <rect x="470.821" y="450" width="112.406" height="12.992" rx="6.496" fill="#03A9F4" opacity="0.2"></rect>
    <rect x="470.821" y="481.732" width="262.938" height="41.984" rx="9.391" fill="#03A9F4" opacity="0.1"></rect>
    <rect x="171.464" y="558.426" width="112.406" height="12.992" rx="6.496" fill="#03A9F4" opacity="0.2"></rect>
    <rect x="171.464" y="590.158" width="262.938" height="41.984" rx="9.391" fill="#03A9F4" opacity="0.1"></rect>
    <rect x="470.821" y="558.426" width="112.406" height="12.992" rx="6.496" fill="#03A9F4" opacity="0.2"></rect>
    <rect x="470.821" y="590.158" width="262.938" height="41.984" rx="9.391" fill="#03A9F4" opacity="0.1"></rect>
    <rect x="366.791" y="664.853" width="174.913" height="42.884" rx="11.15" fill="#03A9F4" opacity="0.2"></rect>
  </g>
  <g>
    <g id="b_4_ha">
      <path d="M480.87,179.288l16.161,19.086-1-3.277a4.364,4.364,0,0,1,2.724-5.3,4.206,4.206,0,0,1,5.351,2.939l7.388,27.819a13.929,13.929,0,0,1-9.549,16.943h0a21.179,21.179,0,0,1-22.56-7.187L467.556,215.3a4.307,4.307,0,0,1-.011-5.45A4.207,4.207,0,0,1,472.4,208.7a.375.375,0,0,1,.1-.174.389.389,0,0,1,.359-.082l-2.191-2.77a4.363,4.363,0,0,1,.147-5.73,4.206,4.206,0,0,1,5.633-.342.357.357,0,0,1,.04-.126l-.9-1.136a4.541,4.541,0,0,1-.043-5.413,4.211,4.211,0,0,1,5.858-.611l.057-.057-6.79-8.019a3.967,3.967,0,0,1,.63-5.724A4.117,4.117,0,0,1,480.87,179.288Z" fill="#FAA896"></path>
      <path id="b_4_ha_sh" d="M481.238,192.766a.4.4,0,0,0,.071.118L488,200.6a.394.394,0,1,0,.6-.517l-6.685-7.713a.4.4,0,0,0-.668.4Z" fill="#0c0c0c" opacity="0.2"></path>
      <path id="b_4_ha_sh-2" data-name="b_4_ha_sh" d="M476.458,199.787a.4.4,0,0,0,.068.115l5.208,6.1a.395.395,0,0,0,.6-.512l-5.208-6.1a.395.395,0,0,0-.669.4Z" fill="#0c0c0c" opacity="0.2"></path>
      <path id="b_4_ha_sh-3" data-name="b_4_ha_sh" d="M472.393,208.965a.4.4,0,0,0,.075.123L475,211.912a.394.394,0,1,0,.588-.526l-2.527-2.825a.395.395,0,0,0-.663.4Z" fill="#0c0c0c" opacity="0.2"></path>
    </g>
    <path d="M676.615,370.718l-141.087-9.874a27,27,0,0,1-23.244-17.056L467.676,230.311l50.255-19.756L556.3,308.166l124.08,8.684Z" fill="#03A9F4"></path>
    <g>
      <path d="M758.534,919.207s-4.515,23.4-26.428,24.709-17.161,18.761-17.161,18.761h83.739V920.839Z" fill="#03A9F4"></path>
      <path d="M784.363,492.277s-.263-7.036-.207,8.924c.207,59.529,1.24,127.525,3.764,167.314,4.058,63.964,14.46,265.629,14.46,265.629l-55.026-.462L694.021,489.858Z" fill="#262626"></path>
      <path d="M660.573,919.207s-4.515,23.4-26.428,24.709-17.161,18.761-17.161,18.761h83.739V920.839Z" fill="#03A9F4"></path>
      <path d="M633.93,496.9s-4.874,203.456-4.16,213.4l20.464,222.3,54.116,1-5.273-231.344s3.72-63.816,19.138-123.073a459.3,459.3,0,0,0,14.169-92.938h0Z" fill="#262626"></path>
      <path d="M784.961,492.271l.18.01S785.011,488.811,784.961,492.271Z" fill="#333"></path>
      <path d="M626.184,383.968c1.135,13.332,6.655,96.51,7.746,112.931H784.3c.85-14.811,4.664-79.575,7.885-108.538,3.075-27.638,9.108-41.476,4.686-49.646-7.226-13.354-26.972-21.071-40.436-22.894-8.222-1.113-20.587-1.911-20.587-1.911s-1.047,21.181-26.013,22.36c-33.985,1.6-31.716-22.36-31.884-22.36-5.506,0-37.566,2.589-44.653,8.046C620.9,331.5,623.775,355.715,626.184,383.968Z" fill="#03A9F4"></path>
      <path d="M624.108,367.262a.5.5,0,0,1-.5-.471L622.4,345.62a.5.5,0,0,1,.47-.528.506.506,0,0,1,.528.471l1.213,21.17a.5.5,0,0,1-.47.528Z" fill="#0c0c0c"></path>
    </g>
    <g>
      <path d="M816.812,496.028a27.454,27.454,0,0,0,25.755-36.951c-1.553-4.213-37.973-100.656-44.907-118.525l-51.339,20.8c3.9,10.048,18.023,48.132,29.371,78.811l-18.852-2.049L750.906,492.7l62.935,3.166A27.494,27.494,0,0,0,816.812,496.028Z" fill="#03A9F4"></path>
      <path id="h_3_sk" d="M660.038,312.084c.169-.022,4.781,17.336,40.778,14.635,24.92-1.867,31-18.83,31.568-18.83-2.687-.571-7.05-1.164-8.244-1.8-3.924-2.108-6.782-4.675-8.221-10.183-1.125-4.308-1.7-20.891-1.7-29.211l-38.348,8.617c.535,9.386,4.276,31.143-8.836,34.994C664.855,310.942,662.505,311.528,660.038,312.084Z" fill="#FAA896"></path>
      <path d="M677.2,293.763c15.118,1.193,34.537-5.19,38.226-25.359l3.328-18.2c3.689-20.169-3.914-38.457-22.9-41.93h0c-18.99-3.473-36.175,10.281-39.863,30.45l-1.474,8.057C653.1,254.521,650.228,291.635,677.2,293.763Z" fill="#FAA896"></path>
      <path d="M663.183,275.245c2.714-13.634,3.958-22.731,3.813-32.328-3.822-6.7-2.817-14.4-1.948-17.724a14.727,14.727,0,0,1-8.838,2.267s6.32-25.368,27.8-32.194c3.95-1.538,14.037-3.48,27.43-1.643,11.392,1.562,39.471,10.08,43.483,41.693h0v.018c.133,1.048,2.829,30.175,8.2,44.15,7.226,18.787,17.37,24.624,17.113,46.3-.331,27.881-51.588,31.592-82.5,29.507s-48.174-12.252-48.4-32.345C649.1,300.433,657.754,302.524,663.183,275.245Z" fill="#0a0a0a"></path>
    </g>
    <rect x="732.146" y="442.418" width="108.028" height="1" transform="translate(316.62 1213.473) rotate(-88.04)" fill="#0c0c0c"></rect>
  </g>
  <path d="M60.486,964.677H945.6a.737.737,0,1,0,0-1.473H60.486a.737.737,0,1,0,0,1.473Z" fill="#292a2e"></path>
  <path d="M722.224,562.475s-2.281,43.2-2.7,53.342c-.978,23.455-1.317,47.739-1.317,75.273l-8.674-72.18S715.876,596.289,722.224,562.475Z" fill="#0a0a0a"></path>
</svg>