<svg id="Layer_1" data-name="Layer 1" xmlns="http://www.w3.org/2000/svg" viewBox="0 0 879.19 658.153">
  <g>
    <rect x="740.662" y="406.183" width="11.544" height="61.212" transform="translate(-80.471 183.459) rotate(-13.302)" fill="#f0f6ff"></rect>
    <g>
      <rect x="729.078" y="424.599" width="53.169" height="6.342" transform="translate(197.907 1093.294) rotate(-79.548)" fill="#c1d8ed"></rect>
      <rect x="757.001" y="401.34" width="5.871" height="6.342" transform="translate(220.49 1075.427) rotate(-79.225)" fill="#dee8f5"></rect>
    </g>
    <rect x="744.573" y="413.105" width="3.722" height="55.139" transform="translate(-109.573 304.255) rotate(-21.502)" fill="#03A9F4"></rect>
    <rect x="733.634" y="436.789" width="30.465" height="38.936" fill="#dee8f5"></rect>
  </g>
  <path d="M879.19,658.153H0c9.634-24.567,27.424-45.408,52.5-51.59,36.686-9.032,75.511,15.8,112.116,6.465,20.8-5.3,37.17-20.745,54.374-33.57,64.906-48.394,153.847-62.692,230.659-37.083,40.145,13.382,76.726,36.783,117.851,46.736,53.179,12.871,108.792,2.2,163.479.438C784.24,587.835,860.553,609.537,879.19,658.153Z" fill="#f3f5fd"></path>
  <rect x="45.17" width="621.087" height="449.786" fill="#dee8f5"></rect>
  <g>
    <rect x="72.415" y="65.134" width="301.634" height="164.721" fill="#fff"></rect>
    <g>
      <rect x="100.975" y="109.07" width="114.169" height="12.245" fill="#dee8f5"></rect>
      <rect x="100.975" y="141.372" width="114.169" height="12.245" fill="#dee8f5"></rect>
      <rect x="100.975" y="173.674" width="114.169" height="12.245" fill="#dee8f5"></rect>
    </g>
    <g>
      <rect x="72.415" y="255.889" width="301.634" height="164.721" fill="#fff"></rect>
      <rect x="177.979" y="309.669" width="17.799" height="84.337" fill="#c1d8ed"></rect>
      <rect x="272.533" y="320.139" width="17.799" height="73.865" fill="#c1d8ed"></rect>
      <rect x="209.497" y="287.355" width="17.799" height="106.65" fill="#c1d8ed"></rect>
      <rect x="241.015" y="334.678" width="17.799" height="59.327" fill="#c1d8ed"></rect>
      <rect x="304.05" y="304.526" width="17.799" height="89.48" fill="#c1d8ed"></rect>
      <rect x="335.961" y="287.355" width="17.799" height="106.65" fill="#c1d8ed"></rect>
    </g>
    <rect x="401.55" y="66.351" width="234.609" height="355.475" fill="#fff"></rect>
    <g>
      <rect x="438.246" y="264.273" width="161.217" height="11.428" fill="#dee8f5"></rect>
      <rect x="438.246" y="296.763" width="161.217" height="11.428" fill="#dee8f5"></rect>
      <rect x="438.246" y="329.252" width="161.217" height="11.428" fill="#dee8f5"></rect>
      <rect x="458.246" y="361.252" width="121.217" height="11.428" fill="#dee8f5"></rect>
    </g>
    <g>
      <g>
        <circle cx="518.855" cy="165.112" r="60" fill="#03A9F4"></circle>
        <g opacity="0.29">
          <circle cx="518.855" cy="165.112" r="38.896" fill="#fff"></circle>
        </g>
      </g>
      <path d="M506.124,179.005l3.628-5.626c2.876,2.2,5.391,3.327,8.067,3.327,3.206,0,4.617-1.33,4.617-3.905,0-5.821-14.934-5.716-14.934-15.925,0-6.563,4.546-10.743,11.715-10.743a14.03,14.03,0,0,1,10.77,4.8l-4.162,4.767c-2.056-1.87-3.8-2.855-6.162-2.855-2.722,0-4.2,1.1-4.2,3.639,0,5.395,14.934,4.924,14.934,15.739,0,6.5-4.3,11.195-12.58,11.195A18.827,18.827,0,0,1,506.124,179.005Zm9.95-38.417h5.519v8.148h-5.519Zm0,39.434h5.519v8.94h-5.519Z" fill="#fff"></path>
    </g>
    <g>
      <g>
        <circle cx="287.393" cy="147.461" r="60" fill="#03A9F4"></circle>
        <g opacity="0.29">
          <circle cx="287.393" cy="147.461" r="38.896" fill="#fff"></circle>
        </g>
      </g>
      <path d="M274.662,161.354l3.629-5.626c2.876,2.2,5.391,3.327,8.066,3.327,3.207,0,4.617-1.33,4.617-3.905,0-5.821-14.934-5.716-14.934-15.925,0-6.563,4.546-10.743,11.715-10.743a14.027,14.027,0,0,1,10.77,4.8l-4.161,4.767c-2.057-1.87-3.8-2.855-6.162-2.855-2.722,0-4.2,1.1-4.2,3.639,0,5.4,14.934,4.924,14.934,15.739,0,6.5-4.3,11.195-12.58,11.195A18.827,18.827,0,0,1,274.662,161.354Zm9.951-38.416h5.519v8.147h-5.519Zm0,39.433h5.519v8.94h-5.519Z" fill="#fff"></path>
    </g>
    <g>
      <g>
        <circle cx="128.572" cy="334.966" r="36.907" fill="#03A9F4"></circle>
        <g opacity="0.29">
          <circle cx="128.572" cy="334.966" r="23.925" fill="#fff"></circle>
        </g>
      </g>
      <path d="M120.741,343.512l2.232-3.461a8.127,8.127,0,0,0,4.962,2.047c1.972,0,2.84-.818,2.84-2.4,0-3.581-9.186-3.516-9.186-9.8,0-4.037,2.8-6.608,7.206-6.608a8.629,8.629,0,0,1,6.625,2.952l-2.56,2.932a5.379,5.379,0,0,0-3.791-1.756c-1.674,0-2.582.675-2.582,2.239,0,3.318,9.186,3.028,9.186,9.68,0,4-2.644,6.887-7.738,6.887A11.581,11.581,0,0,1,120.741,343.512Zm6.121-23.631h3.4v5.012h-3.4Zm0,24.256h3.4v5.5h-3.4Z" fill="#fff"></path>
    </g>
  </g>
  <rect x="45.17" width="621.087" height="37.051" fill="#c1d8ed"></rect>
  <circle cx="645.455" cy="18.526" r="9.296" fill="#fff"></circle>
  <g>
    <g>
      <g>
        <path d="M182.985,243.473s8.042-3.454,8.042-24.581l16.165-1.647s-3.332,18.668,4.234,25.3Z" fill="#FAA896"></path>
        <path d="M182.66,210.013c.58,6.458,3.56,12.772,9.008,15.289a40.5,40.5,0,0,0,19.079,4.189c17.548,0,17.35-39.918,9.7-48.3s-32.332-5.494-36.342,7.141C182.036,194.871,182.107,203.867,182.66,210.013Z" fill="#FAA896"></path>
      </g>
      <path d="M219.528,197.409a66.853,66.853,0,0,0,10.168-.857s-1.03-25.922-28.559-24.444a51.308,51.308,0,0,0-10.688.63c-8.274,1.269-20.005,9.729-21.9,30.9-.868,9.713-4.217,18.869-6.771,24.666a4.472,4.472,0,0,0,4.083,6.286l58.979-.468a4.467,4.467,0,0,0,4.281-5.759C225.916,217.738,220.049,211.226,219.528,197.409Z" fill="#0f1011"></path>
    </g>
    <path d="M250.691,646.678l-20.853-2.48c.939-7.893,2-17.374,2.072-18.928,0,.1,0,.182,0,.245h21C252.906,626.144,252.906,628.06,250.691,646.678Z" fill="#FAA896"></path>
    <path d="M167.016,649.188l-21-.068s.07-21.685.07-23.605h21C167.086,627.441,167.016,649.188,167.016,649.188Z" fill="#FAA896"></path>
    <path d="M221.444,640.047l37-.63c-1.738-44.032-1.844-90.219-2.386-134.357-7.22-47.574-11.023-99.816-19.935-147.049l-.267.079-.782-5.33L159,348.06s-2.2,37.281-2.96,49.7c-3.707,60.281-10.909,171.948-15.428,241.086l36.868,3.115C184.12,574.175,193.4,475.4,199.723,404.194c7.261,34.669,13.2,70.568,19.514,104.94C220.5,552.169,221.562,597.149,221.444,640.047Z" fill="#262626"></path>
    <path d="M192.544,657.31a4.108,4.108,0,0,0,4.089-4.127c0-.1-.005-.2-.012-.3h0a4.11,4.11,0,0,0-2.659-3.529l-24.443-8.186a3.456,3.456,0,0,0-2.872.319,19.114,19.114,0,0,1-11.468,3.4,17.031,17.031,0,0,1-8.82-3.222,1.546,1.546,0,0,0-2.527,1.2v11.952a2.678,2.678,0,0,0,2.678,2.678h.01Z" fill="#c1d8ed"></path>
    <path d="M276.278,657.31a4.106,4.106,0,0,0,4.088-4.125c0-.1,0-.2-.012-.3h0a4.109,4.109,0,0,0-2.658-3.529l-24.443-8.186a3.456,3.456,0,0,0-2.872.319,19.114,19.114,0,0,1-11.468,3.4,17.031,17.031,0,0,1-8.82-3.222,1.546,1.546,0,0,0-2.528,1.2v11.952a2.678,2.678,0,0,0,2.678,2.678h.011Z" fill="#c1d8ed"></path>
    <g>
      <path d="M136.6,384.1c0,2.981,1.574,12.943-.957,13.655-1.518.427-3.31-7-3.31-7" fill="#FAA896"></path>
      <path d="M124.655,382.533s-8.264,20.114,1.162,31.669a1.888,1.888,0,0,0,3.346-1.081c.458-7.791,2.029-23.795,7.166-21.925V378.632" fill="#FAA896"></path>
    </g>
    <path d="M311,275.369s11.542-9.168,12.358-12.461-7.312-9.77-7.312-9.77,10.808-10.9,8.653-12.474c-2.543-1.865-15.085,13.982-15.085,13.982s1.773-5.7-.436-6.075c-.907-.154-1.626.737-3.046,4.772-1.618,4.6-4.852,11.515-4.852,11.515Z" fill="#FAA896"></path>
    <path d="M298.846,263.18l-34.138,38.407-26.7-47.794c-2.528-7.551-8.283-12.609-20.023-13.113-4.015-.172-23.606-.2-37.949-.2-9.637,0-17.548,2.957-22.116,7.526a20.134,20.134,0,0,0-5.021,8.129l-.138-.051L129.807,318.5a10.822,10.822,0,0,0-.552,2.162l-9.264,62.414,21.568,3.2,9.1-61.3,9.27-25.207a53.343,53.343,0,0,1,1.573,11.837c0,21-9.5,30.418-8.8,41.195,1.1,16.945,83.428,12.942,87.623,3.317,4.319-9.927-4.447-16.042-4.063-48.51.041-3.533.315-7.23.69-10.993l16.2,29a10.9,10.9,0,0,0,17.667,1.926l44.884-52.5Z" fill="#03A9F4"></path>
  </g>
  <g>
    <g>
      <rect x="640.916" y="546.057" width="11.395" height="112.096" fill="#c1d8ed"></rect>
      <rect x="631.538" y="546.057" width="11.395" height="112.096" fill="#dee8f5"></rect>
    </g>
    <g>
      <rect x="782.846" y="546.057" width="11.395" height="112.096" fill="#c1d8ed"></rect>
      <rect x="773.468" y="546.057" width="11.395" height="112.096" fill="#dee8f5"></rect>
    </g>
    <g>
      <rect x="672.169" y="546.057" width="11.395" height="112.096" fill="#c1d8ed"></rect>
      <rect x="662.791" y="546.057" width="11.395" height="112.096" fill="#dee8f5"></rect>
    </g>
    <g>
      <rect x="814.099" y="546.057" width="11.395" height="112.096" fill="#c1d8ed"></rect>
      <rect x="804.721" y="546.057" width="11.395" height="112.096" fill="#dee8f5"></rect>
    </g>
    <rect x="672.24" y="474.304" width="153.254" height="74.441" fill="#c1d8ed"></rect>
    <rect x="631.538" y="474.304" width="153.254" height="74.441" fill="#dee8f5"></rect>
    <g opacity="0.53">
      <rect x="639.783" y="484.886" width="136.764" height="52.947" fill="#f3f5fd"></rect>
    </g>
    <circle cx="708.165" cy="511.36" r="6.074" fill="#fff"></circle>
  </g>
</svg>