<svg id="Layer_1" data-name="Layer 1" xmlns="http://www.w3.org/2000/svg" viewBox="0 0 1143.691 697.141">
  <path d="M1064.789,692.857a78.9,78.9,0,0,0,78.823-82.393c-2.6-58.711-32.618-141.612-150.954-224.46C848.352,284.974,913.438-5.91,606.826,14.161S329.448,249.2,141.442,347.729C21.767,410.447.008,533.163,0,614.081a78.85,78.85,0,0,0,78.9,78.776Z" fill="#f3f5fd"></path>
  <rect x="233.47" width="621.087" height="449.786" fill="#dee8f5"></rect>
  <rect x="233.47" width="621.087" height="37.051" fill="#c1d8ed"></rect>
  <circle cx="833.756" cy="18.526" r="9.296" fill="#fff"></circle>
  <g>
    <g>
      <path d="M396.264,141.306a62.473,62.473,0,1,1-62.473-62.473A62.29,62.29,0,0,1,396.264,141.306Z" fill="#c1d8ed"></path>
      <circle cx="333.791" cy="123.011" r="24.732" fill="#fff"></circle>
      <path d="M378.81,184.625a62.484,62.484,0,0,1-90.037,0c8.424-18.826,25.429-31.692,45.018-31.692S370.387,165.8,378.81,184.625Z" fill="#fff"></path>
    </g>
    <rect x="421.72" y="79.221" width="126.125" height="38.115" fill="#fff"></rect>
    <rect x="421.72" y="140.912" width="400.904" height="13.867" fill="#fff"></rect>
    <rect x="421.72" y="178.356" width="400.904" height="13.867" fill="#fff"></rect>
  </g>
  <g>
    <rect x="264.404" y="312.488" width="104.636" height="104.636" fill="#c1d8ed"></rect>
    <g>
      <rect x="394.95" y="374.165" width="138.542" height="11.011" fill="#fff"></rect>
      <rect x="394.95" y="403.895" width="138.542" height="11.011" fill="#fff"></rect>
      <rect x="394.95" y="314.705" width="138.542" height="11.011" fill="#fff"></rect>
      <rect x="394.95" y="344.435" width="138.542" height="11.011" fill="#fff"></rect>
    </g>
    <rect x="554.535" y="312.488" width="104.636" height="104.636" fill="#c1d8ed"></rect>
    <g>
      <rect x="685.081" y="374.165" width="138.542" height="11.011" fill="#fff"></rect>
      <rect x="685.081" y="403.895" width="138.542" height="11.011" fill="#fff"></rect>
      <rect x="685.081" y="314.705" width="138.542" height="11.011" fill="#fff"></rect>
      <rect x="685.081" y="344.435" width="138.542" height="11.011" fill="#fff"></rect>
    </g>
  </g>
  <g>
    <path d="M823.628,252.463a5.958,5.958,0,0,1-5.96,5.95H511.848v-11.9h305.82A5.954,5.954,0,0,1,823.628,252.463Z" fill="#fff"></path>
    <path d="M511.848,246.513v11.9H270.358a5.95,5.95,0,1,1,0-11.9Z" fill="#03A9F4"></path>
    <circle cx="511.845" cy="252.462" r="11.484" fill="#03A9F4"></circle>
  </g>
  <g>
    <g>
      <path d="M332.417,400.931c6.965,95.062,15.907,190.144,28.644,284.617l20.373-1.887c-4.833-95.2-13.509-190.313-24.124-285.036Z" fill="#FAA896"></path>
      <path d="M290.04,422.523c-2.776,73.518-9.778,185.006-13.817,259.411l20.364,1.94C306.231,608.915,321.4,498.8,329.663,424.7Z" fill="#FAA896"></path>
      <path d="M322.969,692.671a4.108,4.108,0,0,0,4.076-4.428h0a4.108,4.108,0,0,0-2.658-3.529l-24.443-8.186a3.461,3.461,0,0,0-2.872.319,19.1,19.1,0,0,1-11.468,3.4,17.031,17.031,0,0,1-8.82-3.222,1.547,1.547,0,0,0-2.528,1.2v11.952a2.678,2.678,0,0,0,2.689,2.678Z" fill="#c1d8ed"></path>
      <path d="M406.7,692.671a4.108,4.108,0,0,0,4.076-4.428h0a4.107,4.107,0,0,0-2.659-3.529l-24.442-8.186a3.46,3.46,0,0,0-2.872.319,19.107,19.107,0,0,1-11.468,3.4,17.035,17.035,0,0,1-8.821-3.222,1.546,1.546,0,0,0-2.527,1.2v11.952a2.677,2.677,0,0,0,2.689,2.678Z" fill="#c1d8ed"></path>
      <path d="M289.417,383.424s-11.36,50.872-11.36,93.654-13.043,109.044-13.043,109.044,37.48-7.826,62.044,0,70.37-6.261,70.37-6.261L365.494,388.12Z" fill="#262626"></path>
    </g>
    <g>
      <path d="M312.462,279.4s8.042-3.455,8.042-24.582l16.165-1.647s-3.332,18.669,4.234,25.3Z" fill="#FAA896"></path>
      <path d="M312.137,245.944c.58,6.457,3.56,12.772,9.008,15.289a40.5,40.5,0,0,0,19.079,4.188c17.548,0,17.35-39.917,9.7-48.295s-32.332-5.493-36.342,7.142C311.513,230.8,311.584,239.8,312.137,245.944Z" fill="#FAA896"></path>
      <path d="M348.214,230.409c-6.862,30.78-13.181,39.008-29.091,32.846-3.649-1.413-12.388-10.08-13.263-28.52a25.259,25.259,0,0,1,20.7-26.32c31.509-4.382,32.615,24.068,32.615,24.068-15.813,2.711-37.352-1.768-37.352-1.768" fill="#0f1011"></path>
      <path d="M348.954,247.789a6.143,6.143,0,1,1-12.285,0,6.041,6.041,0,0,1,6.143-6.142C347.187,241.862,348.954,244.4,348.954,247.789Z" fill="#FAA896"></path>
    </g>
    <g>
      <path d="M266.706,419.458c0,2.98,1.573,12.942-.958,13.654-1.517.427-3.309-7-3.309-7" fill="#FAA896"></path>
      <path d="M254.758,417.893s-8.264,20.114,1.162,31.669a1.888,1.888,0,0,0,3.346-1.081c.458-7.791,2.029-23.8,7.166-21.925V413.992" fill="#FAA896"></path>
    </g>
    <path d="M441.1,310.729s11.542-9.168,12.357-12.461-7.311-9.77-7.311-9.77,10.808-10.895,8.653-12.474c-2.544-1.865-15.085,13.982-15.085,13.982s1.772-5.7-.436-6.075c-.907-.153-1.626.737-3.046,4.772-1.619,4.6-4.852,11.515-4.852,11.515Z" fill="#FAA896"></path>
    <path d="M428.949,298.54l-34.138,38.407-26.7-47.794c-2.528-7.551-8.284-12.609-20.023-13.112-4.015-.173-23.606-.2-37.95-.2-9.636,0-17.548,2.957-22.116,7.526A20.144,20.144,0,0,0,283,291.492l-.138-.051L259.91,353.856a10.888,10.888,0,0,0-.551,2.162l-9.265,62.415,21.569,3.2,9.1-61.305,9.27-25.207a53.359,53.359,0,0,1,1.572,11.837c0,21-9.5,30.418-8.8,41.195,1.1,16.945,83.429,12.942,87.623,3.317,4.32-9.926-4.446-16.042-4.062-48.51.041-3.533.314-7.23.69-10.993l16.2,29a10.9,10.9,0,0,0,17.666,1.925l44.885-52.5Z" fill="#03A9F4"></path>
    <path d="M287.484,240.306c-.6-14.828,2.782-23.815,7.62-28.589,4.773-4.71,20.124-8.206,26.614,10.176,4.235,12,2.864,16.128,4.592,35.067s6.19,18.913,7.027,36.34c.891,18.53-6.655,33.008-26.52,32.885-16.219-.1-26.528-7.894-28.015-24.185C276.669,278.621,288.661,269.364,287.484,240.306Z" fill="#0f1011"></path>
  </g>
  <g>
    <rect x="107.702" y="667.565" width="50.318" height="12.919" transform="translate(-459.783 326.555) rotate(-48.466)" fill="#dee8f5"></rect>
    <rect x="126.402" y="648.866" width="12.919" height="50.318" transform="translate(-459.768 326.531) rotate(-48.463)" fill="#dee8f5"></rect>
  </g>
  <path d="M85.776,686.508C65.97,680.37,46.754,672.349,29.245,649.9c-3.593-4.6-6.97-10.494-5-16,1.482-4.144,5.769-6.8,10.124-7.477a21.017,21.017,0,0,1,4.9-.134c.008,0,.016,0,.019,0A41.248,41.248,0,0,1,46.7,627.74l.692.2a122.125,122.125,0,0,1,32.668,14.755,4.811,4.811,0,0,0,6.7-6.551,29.127,29.127,0,0,0-3.58-4.7,46.214,46.214,0,0,0-6.514-5.649c-3.114-2.272-6.436-4.3-9.687-6.374a268.229,268.229,0,0,1-34.24-25.875C25.1,586.74,17.628,579.187,14,569.619c-1.668-4.4-2.427-9.473-.437-13.738,3.284-7,12.587-8.962,20.194-7.509,13.329,2.553,23.978,12.324,33.421,22.063,7.831,8.093,16.606,17.054,27.857,17.551a9.85,9.85,0,0,0,5.546-1.112c3.21-1.944,4.035-6.448,2.891-10.024s-3.791-6.433-6.346-9.178c-14.851-15.932-29.465-32.506-39.109-52.028S44.1,473.073,50.8,452.346c1.964-6.059,4.916-11.955,9.522-16.357s11.063-7.163,17.385-6.32c8.613,1.134,15.1,8.4,19.464,15.908,15,25.754,14.083,57.308,18.308,86.809,1.182,8.258,2.9,16.729,7.82,23.527a5.562,5.562,0,0,0,1.726,1.609c4.048,2.344,7.68-2.382,9.2-6.393,6-15.869,7.5-34.017,18.242-47.151,4.1-5,9.9-9.179,16.365-9.138,7.9.054,14.655,6.649,16.959,14.2s.925,15.756-1.543,23.255c-4.582,13.906-12.795,26.4-22.472,37.379-5.1,5.8-10.871,11.656-12.4,19.219a15.331,15.331,0,0,0,4.813,14.134,8.983,8.983,0,0,0,6.654,2.175c2.592-.237,4.936-1.559,7.195-2.844.948-.54,1.9-1.088,2.857-1.625q5.66-3.222,11.321-6.453c9.595-5.474,21.182-11.067,31.176-6.353,5.1,2.41,8.441,7.149,10.013,12.586a27.541,27.541,0,0,1,0,15.1c-2.977,10.264-21.741,38.822-29.48,46.188C184.888,670.4,153.544,707.511,85.776,686.508Z" fill="#8ddbe0"></path>
  <g>
    <g>
      <g>
        <rect x="868.187" y="585.268" width="10.963" height="107.848" fill="#c1d8ed"></rect>
        <rect x="859.165" y="585.268" width="10.963" height="107.848" fill="#dee8f5"></rect>
      </g>
      <g>
        <rect x="1004.739" y="585.268" width="10.963" height="107.848" fill="#c1d8ed"></rect>
        <rect x="995.716" y="585.268" width="10.963" height="107.848" fill="#dee8f5"></rect>
      </g>
      <g>
        <rect x="898.256" y="585.268" width="10.963" height="107.848" fill="#c1d8ed"></rect>
        <rect x="889.234" y="585.268" width="10.963" height="107.848" fill="#dee8f5"></rect>
      </g>
      <g>
        <rect x="1034.807" y="585.268" width="10.963" height="107.848" fill="#c1d8ed"></rect>
        <rect x="1025.785" y="585.268" width="10.963" height="107.848" fill="#dee8f5"></rect>
      </g>
      <rect x="898.324" y="516.234" width="147.446" height="71.62" fill="#c1d8ed"></rect>
      <rect x="859.165" y="516.234" width="147.446" height="71.62" fill="#dee8f5"></rect>
      <g opacity="0.53">
        <rect x="867.097" y="526.416" width="131.582" height="50.941" fill="#f3f5fd"></rect>
      </g>
      <circle cx="932.888" cy="551.886" r="5.844" fill="#fff"></circle>
    </g>
    <g>
      <rect x="915.489" y="446.692" width="11.448" height="60.703" transform="translate(-85.044 224.752) rotate(-13.302)" fill="#f0f6ff"></rect>
      <g>
        <rect x="904.001" y="464.956" width="52.727" height="6.289" transform="translate(301.256 1298.112) rotate(-79.548)" fill="#c1d8ed"></rect>
        <rect x="931.692" y="441.89" width="5.822" height="6.289" transform="translate(322.694 1279.963) rotate(-79.225)" fill="#dee8f5"></rect>
      </g>
      <rect x="919.367" y="453.557" width="3.691" height="54.68" transform="translate(-112.152 371.115) rotate(-21.502)" fill="#03A9F4"></rect>
      <rect x="908.52" y="477.044" width="30.212" height="38.612" fill="#c1d8ed"></rect>
    </g>
  </g>
</svg>