<svg width="144" height="54" viewBox="0 0 144 54" fill="none" xmlns="http://www.w3.org/2000/svg">
<path d="M12.016 20.04H21.472V23.784H12.016V35.304C12.016 36.552 12.112 37.592 12.304 38.424C12.496 39.224 12.784 39.864 13.168 40.344C13.552 40.792 14.032 41.112 14.608 41.304C15.184 41.496 15.856 41.592 16.624 41.592C17.968 41.592 19.04 41.448 19.84 41.16C20.672 40.84 21.248 40.616 21.568 40.488L22.432 44.184C21.984 44.408 21.2 44.68 20.08 45C18.96 45.352 17.68 45.528 16.24 45.528C14.544 45.528 13.136 45.32 12.016 44.904C10.928 44.456 10.048 43.8 9.376 42.936C8.704 42.072 8.224 41.016 7.936 39.768C7.68 38.488 7.552 37.016 7.552 35.352V13.08L12.016 12.312V20.04ZM31.6165 45H27.1525V20.04H31.6165V45ZM29.3605 15.528C28.5605 15.528 27.8725 15.272 27.2965 14.76C26.7525 14.216 26.4805 13.496 26.4805 12.6C26.4805 11.704 26.7525 11 27.2965 10.488C27.8725 9.944 28.5605 9.672 29.3605 9.672C30.1605 9.672 30.8325 9.944 31.3765 10.488C31.9525 11 32.2405 11.704 32.2405 12.6C32.2405 13.496 31.9525 14.216 31.3765 14.76C30.8325 15.272 30.1605 15.528 29.3605 15.528ZM59.6931 45C58.7971 42.696 57.8371 40.072 56.8131 37.128C55.8211 34.152 54.9091 31.064 54.0771 27.864C53.2451 31.064 52.3331 34.152 51.3411 37.128C50.3491 40.072 49.4051 42.696 48.5091 45H44.6211C43.1491 41.704 41.7091 37.944 40.3011 33.72C38.8931 29.496 37.5651 24.936 36.3171 20.04H41.1171C41.4371 21.544 41.8211 23.176 42.2691 24.936C42.7171 26.696 43.1811 28.456 43.6611 30.216C44.1731 31.976 44.7011 33.672 45.2451 35.304C45.7891 36.936 46.3011 38.36 46.7811 39.576C47.3251 38.072 47.8531 36.488 48.3651 34.824C48.9091 33.128 49.4211 31.432 49.9011 29.736C50.3811 28.008 50.8291 26.328 51.2451 24.696C51.6931 23.032 52.0771 21.48 52.3971 20.04H56.0931C56.3811 21.48 56.7331 23.032 57.1491 24.696C57.5651 26.328 58.0131 28.008 58.4931 29.736C58.9731 31.432 59.4691 33.128 59.9811 34.824C60.5251 36.488 61.0691 38.072 61.6131 39.576C62.0931 38.36 62.5891 36.936 63.1011 35.304C63.6451 33.672 64.1731 31.976 64.6851 30.216C65.1971 28.456 65.6771 26.696 66.1251 24.936C66.5731 23.176 66.9571 21.544 67.2771 20.04H71.8851C70.6371 24.936 69.3091 29.496 67.9011 33.72C66.4931 37.944 65.0531 41.704 63.5811 45H59.6931ZM98.0751 32.52C98.0751 34.504 97.7871 36.296 97.2111 37.896C96.6351 39.496 95.8191 40.872 94.7631 42.024C93.7391 43.176 92.5071 44.072 91.0671 44.712C89.6271 45.32 88.0591 45.624 86.3631 45.624C84.6671 45.624 83.0991 45.32 81.6591 44.712C80.2191 44.072 78.9711 43.176 77.9151 42.024C76.8911 40.872 76.0911 39.496 75.5151 37.896C74.9391 36.296 74.6511 34.504 74.6511 32.52C74.6511 30.568 74.9391 28.792 75.5151 27.192C76.0911 25.56 76.8911 24.168 77.9151 23.016C78.9711 21.864 80.2191 20.984 81.6591 20.376C83.0991 19.736 84.6671 19.416 86.3631 19.416C88.0591 19.416 89.6271 19.736 91.0671 20.376C92.5071 20.984 93.7391 21.864 94.7631 23.016C95.8191 24.168 96.6351 25.56 97.2111 27.192C97.7871 28.792 98.0751 30.568 98.0751 32.52ZM93.4191 32.52C93.4191 29.704 92.7791 27.48 91.4991 25.848C90.2511 24.184 88.5391 23.352 86.3631 23.352C84.1871 23.352 82.4591 24.184 81.1791 25.848C79.9311 27.48 79.3071 29.704 79.3071 32.52C79.3071 35.336 79.9311 37.576 81.1791 39.24C82.4591 40.872 84.1871 41.688 86.3631 41.688C88.5391 41.688 90.2511 40.872 91.4991 39.24C92.7791 37.576 93.4191 35.336 93.4191 32.52ZM108.82 45H104.356V20.04H108.82V45ZM106.564 15.528C105.764 15.528 105.076 15.272 104.5 14.76C103.956 14.216 103.684 13.496 103.684 12.6C103.684 11.704 103.956 11 104.5 10.488C105.076 9.944 105.764 9.672 106.564 9.672C107.364 9.672 108.036 9.944 108.58 10.488C109.156 11 109.444 11.704 109.444 12.6C109.444 13.496 109.156 14.216 108.58 14.76C108.036 15.272 107.364 15.528 106.564 15.528ZM116.496 20.76C117.52 20.504 118.88 20.232 120.576 19.944C122.272 19.656 124.224 19.512 126.432 19.512C128.416 19.512 130.064 19.8 131.376 20.376C132.688 20.92 133.728 21.704 134.496 22.728C135.296 23.72 135.856 24.92 136.176 26.328C136.496 27.736 136.656 29.288 136.656 30.984V45H132.192V31.944C132.192 30.408 132.08 29.096 131.856 28.008C131.664 26.92 131.328 26.04 130.848 25.368C130.368 24.696 129.728 24.216 128.928 23.928C128.128 23.608 127.136 23.448 125.952 23.448C125.472 23.448 124.976 23.464 124.464 23.496C123.952 23.528 123.456 23.576 122.976 23.64C122.528 23.672 122.112 23.72 121.728 23.784C121.376 23.848 121.12 23.896 120.96 23.928V45H116.496V20.76Z" fill="#CC0058"/>
</svg>
